{
	"accessors" : 
	[
		{
			"bufferView" : 2,
			"byteOffset" : 0,
			"componentType" : 5126,
			"count" : 11836,
			"max" : 
			[
				1,
				1,
				1,
				1
			],
			"min" : 
			[
				0.0697270855307579,
				0.0384727455675602,
				0.06190747767686844,
				1
			],
			"name" : "accessor_color_m0-PolyPaper21_-206802",
			"type" : "VEC4"
		},
		{
			"bufferView" : 2,
			"byteOffset" : 189376,
			"componentType" : 5126,
			"count" : 5562,
			"max" : 
			[
				1,
				1,
				1,
				1
			],
			"min" : 
			[
				0.0697270855307579,
				0.0384727455675602,
				0.06190747767686844,
				1
			],
			"name" : "accessor_color_m2-PolyPaper21_-206814",
			"type" : "VEC4"
		},
		{
			"bufferView" : 0,
			"byteOffset" : 0,
			"componentType" : 5123,
			"count" : 20706,
			"max" : 
			[
				11835
			],
			"min" : 
			[
				0
			],
			"name" : "accessor_indices_0_m0-PolyPaper21_-206802",
			"type" : "SCALAR"
		},
		{
			"bufferView" : 0,
			"byteOffset" : 41412,
			"componentType" : 5123,
			"count" : 9726,
			"max" : 
			[
				5561
			],
			"min" : 
			[
				0
			],
			"name" : "accessor_indices_0_m2-PolyPaper21_-206814",
			"type" : "SCALAR"
		},
		{
			"bufferView" : 1,
			"byteOffset" : 142032,
			"componentType" : 5126,
			"count" : 11836,
			"max" : 
			[
				1,
				1,
				1
			],
			"min" : 
			[
				-1,
				-1,
				-1
			],
			"name" : "accessor_normal_m0-PolyPaper21_-206802",
			"type" : "VEC3"
		},
		{
			"bufferView" : 1,
			"byteOffset" : 350808,
			"componentType" : 5126,
			"count" : 5562,
			"max" : 
			[
				1,
				1,
				1
			],
			"min" : 
			[
				-1,
				-1,
				-1
			],
			"name" : "accessor_normal_m2-PolyPaper21_-206814",
			"type" : "VEC3"
		},
		{
			"bufferView" : 1,
			"byteOffset" : 0,
			"componentType" : 5126,
			"count" : 11836,
			"max" : 
			[
				2.040613,
				2.936104,
				3.001694
			],
			"min" : 
			[
				-3.843161,
				0.4253131,
				-2.335599
			],
			"name" : "accessor_position_m0-PolyPaper21_-206802",
			"type" : "VEC3"
		},
		{
			"bufferView" : 1,
			"byteOffset" : 284064,
			"componentType" : 5126,
			"count" : 5562,
			"max" : 
			[
				3.094647,
				2.789967,
				2.329981
			],
			"min" : 
			[
				-1.009989,
				0.4284034,
				-2.349931
			],
			"name" : "accessor_position_m2-PolyPaper21_-206814",
			"type" : "VEC3"
		}
	],
	"asset" : 
	{
		"copyright" : "Unknown",
		"generator" : "glTF 1-to-2 Upgrader for Google Blocks",
		"version" : "2.0"
	},
	"bufferViews" : 
	[
		{
			"buffer" : 0,
			"byteLength" : 60864,
			"byteOffset" : 0,
			"name" : "ushortBufferView",
			"target" : 34963
		},
		{
			"buffer" : 0,
			"byteLength" : 417552,
			"byteOffset" : 60864,
			"byteStride" : 12,
			"name" : "vec3BufferView",
			"target" : 34962
		},
		{
			"buffer" : 0,
			"byteLength" : 278368,
			"byteOffset" : 478416,
			"byteStride" : 16,
			"name" : "vec4BufferView",
			"target" : 34962
		}
	],
	"buffers" : 
	[
		{
			"byteLength" : 756784,
			"name" : "model",
			"uri" : "model.bin"
		}
	],
	"materials" : 
	[
		{
			"alphaMode" : "OPAQUE",
			"doubleSided" : false,
			"name" : "BlocksPaper",
			"pbrMetallicRoughness" : 
			{
				"baseColorFactor" : 
				[
					1,
					1,
					1,
					1
				],
				"metallicFactor" : 0,
				"roughnessFactor" : 0.6
			}
		},
		{
			"alphaMode" : "BLEND",
			"doubleSided" : false,
			"name" : "BlocksGlass",
			"pbrMetallicRoughness" : 
			{
				"baseColorFactor" : 
				[
					0.2,
					0.2,
					1,
					0.3
				],
				"metallicFactor" : 1,
				"roughnessFactor" : 0.4
			}
		},
		{
			"alphaMode" : "OPAQUE",
			"doubleSided" : true,
			"name" : "BlocksGem",
			"pbrMetallicRoughness" : 
			{
				"baseColorFactor" : 
				[
					1,
					0.4,
					1,
					1
				],
				"metallicFactor" : 0,
				"roughnessFactor" : 0.1
			}
		}
	],
	"meshes" : 
	[
		{
			"name" : "mesh_m0-PolyPaper21_-206802",
			"primitives" : 
			[
				{
					"attributes" : 
					{
						"COLOR_0" : 0,
						"NORMAL" : 4,
						"POSITION" : 6
					},
					"indices" : 2,
					"material" : 0,
					"mode" : 4
				}
			]
		},
		{
			"name" : "mesh_m2-PolyPaper21_-206814",
			"primitives" : 
			[
				{
					"attributes" : 
					{
						"COLOR_0" : 1,
						"NORMAL" : 5,
						"POSITION" : 7
					},
					"indices" : 3,
					"material" : 0,
					"mode" : 4
				}
			]
		}
	],
	"nodes" : 
	[
		{
			"matrix" : 
			[
				1,
				0,
				0,
				0,
				0,
				1,
				0,
				0,
				0,
				0,
				1,
				0,
				0,
				0,
				0,
				1
			],
			"mesh" : 1,
			"name" : "node_MeshObject165188608-PolyPaper21"
		},
		{
			"matrix" : 
			[
				1,
				0,
				0,
				0,
				0,
				1,
				0,
				0,
				0,
				0,
				1,
				0,
				0,
				0,
				0,
				1
			],
			"mesh" : 0,
			"name" : "node_MeshObject455602176-PolyPaper21"
		}
	],
	"scene" : 0,
	"scenes" : 
	[
		{
			"extras" : {},
			"name" : "defaultScene",
			"nodes" : 
			[
				1,
				0
			]
		}
	]
}