{
  "accessors": [
    {
      "bufferView": 2,
      "componentType": 5126,
      "count": 92,
      "max": [
        10,
        5,
        5
      ],
      "min": [
        -10,
        -5,
        0
      ],
      "type": "VEC3"
    },
    {
      "bufferView": 2,
      "byteOffset": 1104,
      "componentType": 5126,
      "count": 92,
      "max": [
        1,
        1,
        1
      ],
      "min": [
        -1,
        -1,
        -1
      ],
      "type": "VEC3"
    },
    {
      "bufferView": 3,
      "componentType": 5126,
      "count": 92,
      "max": [
        1,
        1,
        8.6578218372324045e-08,
        1
      ],
      "min": [
        -1,
        -1,
        -2.0047025373060023e-07,
        -1
      ],
      "type": "VEC4"
    },
    {
      "bufferView": 1,
      "componentType": 5126,
      "count": 92,
      "max": [
        0.999767005443573,
        0.99877560138702393
      ],
      "min": [
        0.00031429601949639618,
        0.00070819444954395294
      ],
      "type": "VEC2"
    },
    {
      "bufferView": 0,
      "componentType": 5125,
      "count": 174,
      "max": [
        91
      ],
      "min": [
        0
      ],
      "type": "SCALAR"
    },
    {
      "bufferView": 2,
      "byteOffset": 2208,
      "componentType": 5126,
      "count": 20,
      "max": [
        0.37323093414306641,
        0.20322704315185547,
        0.46732395887374878
      ],
      "min": [
        -0.37323093414306641,
        -0.20322704315185547,
        0
      ],
      "type": "VEC3"
    },
    {
      "bufferView": 2,
      "byteOffset": 2448,
      "componentType": 5126,
      "count": 20,
      "max": [
        1,
        0,
        1
      ],
      "min": [
        -1,
        -1,
        -1
      ],
      "type": "VEC3"
    },
    {
      "bufferView": 3,
      "byteOffset": 1472,
      "componentType": 5126,
      "count": 20,
      "max": [
        1,
        0,
        0,
        1
      ],
      "min": [
        0,
        0,
        -1,
        1
      ],
      "type": "VEC4"
    },
    {
      "bufferView": 1,
      "byteOffset": 736,
      "componentType": 5126,
      "count": 20,
      "max": [
        0.72322726249694824,
        0.81367039680480957
      ],
      "min": [
        0.644248366355896,
        0.26300555467605591
      ],
      "type": "VEC2"
    },
    {
      "bufferView": 0,
      "byteOffset": 696,
      "componentType": 5125,
      "count": 30,
      "max": [
        19
      ],
      "min": [
        0
      ],
      "type": "SCALAR"
    },
    {
      "bufferView": 2,
      "byteOffset": 2688,
      "componentType": 5126,
      "count": 20,
      "max": [
        0.37323093414306641,
        0.20322704315185547,
        0.46732395887374878
      ],
      "min": [
        -0.37323093414306641,
        -0.20322704315185547,
        0
      ],
      "type": "VEC3"
    },
    {
      "bufferView": 2,
      "byteOffset": 2928,
      "componentType": 5126,
      "count": 20,
      "max": [
        1,
        0,
        1
      ],
      "min": [
        -1,
        -1,
        -1
      ],
      "type": "VEC3"
    },
    {
      "bufferView": 3,
      "byteOffset": 1792,
      "componentType": 5126,
      "count": 20,
      "max": [
        1,
        0,
        0,
        1
      ],
      "min": [
        0,
        0,
        -1,
        1
      ],
      "type": "VEC4"
    },
    {
      "bufferView": 1,
      "byteOffset": 896,
      "componentType": 5126,
      "count": 20,
      "max": [
        0.72322726249694824,
        0.81367039680480957
      ],
      "min": [
        0.644248366355896,
        0.26300555467605591
      ],
      "type": "VEC2"
    },
    {
      "bufferView": 0,
      "byteOffset": 816,
      "componentType": 5125,
      "count": 30,
      "max": [
        19
      ],
      "min": [
        0
      ],
      "type": "SCALAR"
    },
    {
      "bufferView": 2,
      "byteOffset": 3168,
      "componentType": 5126,
      "count": 20,
      "max": [
        0.37323093414306641,
        0.20322704315185547,
        0.46732395887374878
      ],
      "min": [
        -0.37323093414306641,
        -0.20322704315185547,
        0
      ],
      "type": "VEC3"
    },
    {
      "bufferView": 2,
      "byteOffset": 3408,
      "componentType": 5126,
      "count": 20,
      "max": [
        1,
        0,
        1
      ],
      "min": [
        -1,
        -1,
        -1
      ],
      "type": "VEC3"
    },
    {
      "bufferView": 3,
      "byteOffset": 2112,
      "componentType": 5126,
      "count": 20,
      "max": [
        1,
        0,
        0,
        1
      ],
      "min": [
        0,
        0,
        -1,
        1
      ],
      "type": "VEC4"
    },
    {
      "bufferView": 1,
      "byteOffset": 1056,
      "componentType": 5126,
      "count": 20,
      "max": [
        0.72322726249694824,
        0.81367039680480957
      ],
      "min": [
        0.644248366355896,
        0.26300555467605591
      ],
      "type": "VEC2"
    },
    {
      "bufferView": 0,
      "byteOffset": 936,
      "componentType": 5125,
      "count": 30,
      "max": [
        19
      ],
      "min": [
        0
      ],
      "type": "SCALAR"
    },
    {
      "bufferView": 2,
      "byteOffset": 3648,
      "componentType": 5126,
      "count": 20,
      "max": [
        0.37323093414306641,
        0.20322704315185547,
        0.46732395887374878
      ],
      "min": [
        -0.37323093414306641,
        -0.20322704315185547,
        0
      ],
      "type": "VEC3"
    },
    {
      "bufferView": 2,
      "byteOffset": 3888,
      "componentType": 5126,
      "count": 20,
      "max": [
        1,
        0,
        1
      ],
      "min": [
        -1,
        -1,
        -1
      ],
      "type": "VEC3"
    },
    {
      "bufferView": 3,
      "byteOffset": 2432,
      "componentType": 5126,
      "count": 20,
      "max": [
        1,
        0,
        0,
        1
      ],
      "min": [
        0,
        0,
        -1,
        1
      ],
      "type": "VEC4"
    },
    {
      "bufferView": 1,
      "byteOffset": 1216,
      "componentType": 5126,
      "count": 20,
      "max": [
        0.72322726249694824,
        0.81367039680480957
      ],
      "min": [
        0.644248366355896,
        0.26300555467605591
      ],
      "type": "VEC2"
    },
    {
      "bufferView": 0,
      "byteOffset": 1056,
      "componentType": 5125,
      "count": 30,
      "max": [
        19
      ],
      "min": [
        0
      ],
      "type": "SCALAR"
    },
    {
      "bufferView": 2,
      "byteOffset": 4128,
      "componentType": 5126,
      "count": 16,
      "max": [
        0.88611459732055664,
        2.1746013164520264,
        2.1267890930175781
      ],
      "min": [
        -1.4001467227935791,
        -2.1746013164520264,
        0
      ],
      "type": "VEC3"
    },
    {
      "bufferView": 2,
      "byteOffset": 4320,
      "componentType": 5126,
      "count": 16,
      "max": [
        0,
        1,
        0
      ],
      "min": [
        -0.98552209138870239,
        -1,
        0
      ],
      "type": "VEC3"
    },
    {
      "bufferView": 3,
      "byteOffset": 2752,
      "componentType": 5126,
      "count": 16,
      "max": [
        1,
        0,
        0,
        1
      ],
      "min": [
        -1,
        -0.98552209138870239,
        0,
        1
      ],
      "type": "VEC4"
    },
    {
      "bufferView": 1,
      "byteOffset": 1376,
      "componentType": 5126,
      "count": 16,
      "max": [
        0.37242719531059265,
        0.4265080988407135
      ],
      "min": [
        0.16548871994018555,
        0.002871369244530797
      ],
      "type": "VEC2"
    },
    {
      "bufferView": 0,
      "byteOffset": 1176,
      "componentType": 5125,
      "count": 30,
      "max": [
        15
      ],
      "min": [
        0
      ],
      "type": "SCALAR"
    },
    {
      "bufferView": 2,
      "byteOffset": 4512,
      "componentType": 5126,
      "count": 32,
      "max": [
        0.88611459732055664,
        2.1746013164520264,
        2.1267890930175781
      ],
      "min": [
        -1.4001467227935791,
        -2.1746013164520264,
        0
      ],
      "type": "VEC3"
    },
    {
      "bufferView": 2,
      "byteOffset": 4896,
      "componentType": 5126,
      "count": 32,
      "max": [
        0,
        1,
        1
      ],
      "min": [
        -0.98552209138870239,
        -1,
        -1
      ],
      "type": "VEC3"
    },
    {
      "bufferView": 3,
      "byteOffset": 3008,
      "componentType": 5126,
      "count": 32,
      "max": [
        1,
        1,
        0,
        1
      ],
      "min": [
        -1,
        -1,
        0,
        1
      ],
      "type": "VEC4"
    },
    {
      "bufferView": 1,
      "byteOffset": 1504,
      "componentType": 5126,
      "count": 32,
      "max": [
        0.49169772863388062,
        0.69259053468704224
      ],
      "min": [
        0.0070755090564489365,
        -0.41506156325340271
      ],
      "type": "VEC2"
    },
    {
      "bufferView": 0,
      "byteOffset": 1296,
      "componentType": 5125,
      "count": 66,
      "max": [
        31
      ],
      "min": [
        0
      ],
      "type": "SCALAR"
    }
  ],
  "asset": {
    "extras": {
      "author": "Denis Loginovskiy (https://sketchfab.com/denlog2)",
      "license": "CC-BY-4.0 (http://creativecommons.org/licenses/by/4.0/)",
      "source": "https://sketchfab.com/models/891fb402199745a9b8ff776e6145b9c6",
      "title": "Auto-shop"
    },
    "generator": "Sketchfab-3.18.6",
    "version": "2.0"
  },
  "bufferViews": [
    {
      "buffer": 0,
      "byteLength": 1560,
      "byteOffset": 0,
      "name": "floatBufferViews",
      "target": 34963
    },
    {
      "buffer": 0,
      "byteLength": 1760,
      "byteOffset": 1560,
      "byteStride": 8,
      "name": "floatBufferViews",
      "target": 34962
    },
    {
      "buffer": 0,
      "byteLength": 5280,
      "byteOffset": 3320,
      "byteStride": 12,
      "name": "floatBufferViews",
      "target": 34962
    },
    {
      "buffer": 0,
      "byteLength": 3520,
      "byteOffset": 8600,
      "byteStride": 16,
      "name": "floatBufferViews",
      "target": 34962
    }
  ],
  "buffers": [
    {
      "byteLength": 12120,
      "uri": "scene.bin"
    }
  ],
  "images": [
    {
      "uri": "textures/01_-_Default_baseColor.jpeg"
    }
  ],
  "materials": [
    {
      "doubleSided": true,
      "emissiveFactor": [
        0,
        0,
        0
      ],
      "name": "01_-_Default",
      "pbrMetallicRoughness": {
        "baseColorFactor": [
          1,
          1,
          1,
          1
        ],
        "baseColorTexture": {
          "index": 0,
          "texCoord": 0
        },
        "metallicFactor": 0,
        "roughnessFactor": 0.59999999999999998
      }
    }
  ],
  "meshes": [
    {
      "name": "Box001_01 - Default_0",
      "primitives": [
        {
          "attributes": {
            "NORMAL": 1,
            "POSITION": 0,
            "TANGENT": 2,
            "TEXCOORD_0": 3
          },
          "indices": 4,
          "material": 0,
          "mode": 4
        }
      ]
    },
    {
      "name": "Box002_01 - Default_0",
      "primitives": [
        {
          "attributes": {
            "NORMAL": 6,
            "POSITION": 5,
            "TANGENT": 7,
            "TEXCOORD_0": 8
          },
          "indices": 9,
          "material": 0,
          "mode": 4
        }
      ]
    },
    {
      "name": "Box003_01 - Default_0",
      "primitives": [
        {
          "attributes": {
            "NORMAL": 11,
            "POSITION": 10,
            "TANGENT": 12,
            "TEXCOORD_0": 13
          },
          "indices": 14,
          "material": 0,
          "mode": 4
        }
      ]
    },
    {
      "name": "Box004_01 - Default_0",
      "primitives": [
        {
          "attributes": {
            "NORMAL": 16,
            "POSITION": 15,
            "TANGENT": 17,
            "TEXCOORD_0": 18
          },
          "indices": 19,
          "material": 0,
          "mode": 4
        }
      ]
    },
    {
      "name": "Box005_01 - Default_0",
      "primitives": [
        {
          "attributes": {
            "NORMAL": 21,
            "POSITION": 20,
            "TANGENT": 22,
            "TEXCOORD_0": 23
          },
          "indices": 24,
          "material": 0,
          "mode": 4
        }
      ]
    },
    {
      "name": "Box006_01 - Default_0",
      "primitives": [
        {
          "attributes": {
            "NORMAL": 26,
            "POSITION": 25,
            "TANGENT": 27,
            "TEXCOORD_0": 28
          },
          "indices": 29,
          "material": 0,
          "mode": 4
        }
      ]
    },
    {
      "name": "Box007_01 - Default_0",
      "primitives": [
        {
          "attributes": {
            "NORMAL": 31,
            "POSITION": 30,
            "TANGENT": 32,
            "TEXCOORD_0": 33
          },
          "indices": 34,
          "material": 0,
          "mode": 4
        }
      ]
    }
  ],
  "nodes": [
    {
      "children": [
        1
      ],
      "name": "RootNode (gltf orientation matrix)",
      "rotation": [
        -0.70710678118654746,
        -0,
        -0,
        0.70710678118654757
      ]
    },
    {
      "children": [
        2
      ],
      "name": "RootNode (model correction matrix)"
    },
    {
      "children": [
        3
      ],
      "matrix": [
        1,
        0,
        0,
        0,
        0,
        0,
        1,
        0,
        0,
        -1,
        0,
        0,
        0,
        0,
        0,
        1
      ],
      "name": "276bf657d018435089b7eb627c188154.fbx"
    },
    {
      "children": [
        4,
        6,
        8,
        10,
        12,
        14,
        16
      ],
      "name": "RootNode"
    },
    {
      "children": [
        5
      ],
      "matrix": [
        0.82168442010879517,
        0,
        0,
        0,
        0,
        2.4575218361595232e-16,
        -1.1067694425582886,
        0,
        0,
        1,
        2.2204460492503131e-16,
        0,
        0,
        0,
        0,
        1
      ],
      "name": "Box001"
    },
    {
      "mesh": 0,
      "name": "Box001_01 - Default_0"
    },
    {
      "children": [
        7
      ],
      "matrix": [
        1.21284019947052,
        0,
        0,
        0,
        0,
        2.2204460492503131e-16,
        -1,
        0,
        0,
        1.3095515966415405,
        2.9077886690521482e-16,
        0,
        -4.0033712387084961,
        3.5507426261901855,
        5.7356157302856445,
        1
      ],
      "name": "Box002"
    },
    {
      "mesh": 1,
      "name": "Box002_01 - Default_0"
    },
    {
      "children": [
        9
      ],
      "matrix": [
        1.21284019947052,
        0,
        0,
        0,
        0,
        2.2204460492503131e-16,
        -1,
        0,
        0,
        1.3095515966415405,
        2.9077886690521482e-16,
        0,
        -4.0033712387084961,
        2.8804216384887695,
        5.7356157302856445,
        1
      ],
      "name": "Box003"
    },
    {
      "mesh": 2,
      "name": "Box003_01 - Default_0"
    },
    {
      "children": [
        11
      ],
      "matrix": [
        1.21284019947052,
        0,
        0,
        0,
        0,
        2.2204460492503131e-16,
        -1,
        0,
        0,
        1.3095515966415405,
        2.9077886690521482e-16,
        0,
        4.3283805847167969,
        3.5507426261901855,
        5.7356157302856445,
        1
      ],
      "name": "Box004"
    },
    {
      "mesh": 3,
      "name": "Box004_01 - Default_0"
    },
    {
      "children": [
        13
      ],
      "matrix": [
        1.21284019947052,
        0,
        0,
        0,
        0,
        2.2204460492503131e-16,
        -1,
        0,
        0,
        1.3095515966415405,
        2.9077886690521482e-16,
        0,
        4.3283805847167969,
        2.8804216384887695,
        5.7356157302856445,
        1
      ],
      "name": "Box005"
    },
    {
      "mesh": 4,
      "name": "Box005_01 - Default_0"
    },
    {
      "children": [
        15
      ],
      "matrix": [
        0.64175117015838623,
        0,
        0,
        0,
        0,
        2.2204460492503131e-16,
        -1,
        0,
        0,
        1,
        2.2204460492503131e-16,
        0,
        -8.7682771682739258,
        0,
        0.045786380767822266,
        1
      ],
      "name": "Box006"
    },
    {
      "mesh": 5,
      "name": "Box006_01 - Default_0"
    },
    {
      "children": [
        17
      ],
      "matrix": [
        0.70948857069015503,
        0,
        0,
        0,
        0,
        2.3746632203745354e-16,
        -1.069453239440918,
        0,
        0,
        0.23654311895370483,
        5.2523123395810075e-17,
        0,
        -8.8147315979003906,
        2.1280491352081299,
        0.045786473900079727,
        1
      ],
      "name": "Box007"
    },
    {
      "mesh": 6,
      "name": "Box007_01 - Default_0"
    }
  ],
  "samplers": [
    {
      "magFilter": 9729,
      "minFilter": 9987,
      "wrapS": 10497,
      "wrapT": 10497
    }
  ],
  "scene": 0,
  "scenes": [
    {
      "name": "OSG_Scene",
      "nodes": [
        0
      ]
    }
  ],
  "textures": [
    {
      "sampler": 0,
      "source": 0
    }
  ]
}

