{
  "accessors": [
    {
      "bufferView": 1,
      "componentType": 5126,
      "count": 2635,
      "max": [
        4.1755537986755371,
        0.23550763726234436,
        4.4685201644897461
      ],
      "min": [
        0.69662773609161377,
        -0.30912622809410095,
        0.63926076889038086
      ],
      "type": "VEC3"
    },
    {
      "bufferView": 1,
      "byteOffset": 31620,
      "componentType": 5126,
      "count": 2635,
      "max": [
        1,
        1,
        1
      ],
      "min": [
        -0.9997105598449707,
        -1,
        -1
      ],
      "type": "VEC3"
    },
    {
      "bufferView": 2,
      "componentType": 5126,
      "count": 2635,
      "max": [
        1,
        1,
        1,
        1
      ],
      "min": [
        1,
        1,
        1,
        1
      ],
      "type": "VEC4"
    },
    {
      "bufferView": 0,
      "componentType": 5125,
      "count": 3549,
      "max": [
        2634
      ],
      "min": [
        0
      ],
      "type": "SCALAR"
    },
    {
      "bufferView": 1,
      "byteOffset": 63240,
      "componentType": 5126,
      "count": 7807,
      "max": [
        4.1717033386230469,
        0.42785695195198059,
        4.4650130271911621
      ],
      "min": [
        -0.34116825461387634,
        -0.4211372435092926,
        0.014567678794264793
      ],
      "type": "VEC3"
    },
    {
      "bufferView": 1,
      "byteOffset": 156924,
      "componentType": 5126,
      "count": 7807,
      "max": [
        1,
        1,
        1
      ],
      "min": [
        -0.99969565868377686,
        -0.99998325109481812,
        -1
      ],
      "type": "VEC3"
    },
    {
      "bufferView": 2,
      "byteOffset": 42160,
      "componentType": 5126,
      "count": 7807,
      "max": [
        1,
        1,
        1,
        1
      ],
      "min": [
        1,
        1,
        1,
        1
      ],
      "type": "VEC4"
    },
    {
      "bufferView": 0,
      "byteOffset": 14196,
      "componentType": 5125,
      "count": 8721,
      "max": [
        7806
      ],
      "min": [
        0
      ],
      "type": "SCALAR"
    },
    {
      "bufferView": 1,
      "byteOffset": 250608,
      "componentType": 5126,
      "count": 290,
      "max": [
        4.1297035217285156,
        0.10262089967727661,
        4.2370553016662598
      ],
      "min": [
        0.70521080493927002,
        -0.30984833836555481,
        1.669894814491272
      ],
      "type": "VEC3"
    },
    {
      "bufferView": 1,
      "byteOffset": 254088,
      "componentType": 5126,
      "count": 290,
      "max": [
        0.82527077198028564,
        -0.10415665060281754,
        0.97783434391021729
      ],
      "min": [
        -0.93101918697357178,
        -0.99933403730392456,
        -0.97783434391021729
      ],
      "type": "VEC3"
    },
    {
      "bufferView": 2,
      "byteOffset": 167072,
      "componentType": 5126,
      "count": 290,
      "max": [
        1,
        1,
        1,
        1
      ],
      "min": [
        1,
        1,
        1,
        1
      ],
      "type": "VEC4"
    },
    {
      "bufferView": 0,
      "byteOffset": 49080,
      "componentType": 5125,
      "count": 1584,
      "max": [
        289
      ],
      "min": [
        0
      ],
      "type": "SCALAR"
    },
    {
      "bufferView": 1,
      "byteOffset": 257568,
      "componentType": 5126,
      "count": 435,
      "max": [
        4.1297035217285156,
        0.10262089967727661,
        4.0126032829284668
      ],
      "min": [
        0.70521080493927002,
        -0.30984833836555481,
        1.4454436302185059
      ],
      "type": "VEC3"
    },
    {
      "bufferView": 1,
      "byteOffset": 262788,
      "componentType": 5126,
      "count": 435,
      "max": [
        0.82527077198028564,
        0.93101680278778076,
        0.97784477472305298
      ],
      "min": [
        -0.99933397769927979,
        -0.99933397769927979,
        -0.97783875465393066
      ],
      "type": "VEC3"
    },
    {
      "bufferView": 2,
      "byteOffset": 171712,
      "componentType": 5126,
      "count": 435,
      "max": [
        1,
        1,
        1,
        1
      ],
      "min": [
        1,
        1,
        1,
        1
      ],
      "type": "VEC4"
    },
    {
      "bufferView": 0,
      "byteOffset": 55416,
      "componentType": 5125,
      "count": 2376,
      "max": [
        434
      ],
      "min": [
        0
      ],
      "type": "SCALAR"
    },
    {
      "bufferView": 1,
      "byteOffset": 268008,
      "componentType": 5126,
      "count": 435,
      "max": [
        4.1297035217285156,
        0.10262089967727661,
        4.4615058898925781
      ],
      "min": [
        0.70521080493927002,
        -0.30984833836555481,
        1.669894814491272
      ],
      "type": "VEC3"
    },
    {
      "bufferView": 1,
      "byteOffset": 273228,
      "componentType": 5126,
      "count": 435,
      "max": [
        0.82526969909667969,
        0.93101680278778076,
        0.97783881425857544
      ],
      "min": [
        -0.99933397769927979,
        -0.99933397769927979,
        -0.97783875465393066
      ],
      "type": "VEC3"
    },
    {
      "bufferView": 2,
      "byteOffset": 178672,
      "componentType": 5126,
      "count": 435,
      "max": [
        1,
        1,
        1,
        1
      ],
      "min": [
        1,
        1,
        1,
        1
      ],
      "type": "VEC4"
    },
    {
      "bufferView": 0,
      "byteOffset": 64920,
      "componentType": 5125,
      "count": 2376,
      "max": [
        434
      ],
      "min": [
        0
      ],
      "type": "SCALAR"
    },
    {
      "bufferView": 1,
      "byteOffset": 278448,
      "componentType": 5126,
      "count": 1026,
      "max": [
        4.2241864204406738,
        0.11357441544532776,
        4.5741567611694336
      ],
      "min": [
        0.61056613922119141,
        -0.30673056840896606,
        0.69353240728378296
      ],
      "type": "VEC3"
    },
    {
      "bufferView": 1,
      "byteOffset": 290760,
      "componentType": 5126,
      "count": 1026,
      "max": [
        1,
        0.99334836006164551,
        1
      ],
      "min": [
        -0.99335849285125732,
        -0.99335277080535889,
        -1
      ],
      "type": "VEC3"
    },
    {
      "bufferView": 2,
      "byteOffset": 185632,
      "componentType": 5126,
      "count": 1026,
      "max": [
        1,
        1,
        1,
        1
      ],
      "min": [
        1,
        1,
        1,
        1
      ],
      "type": "VEC4"
    },
    {
      "bufferView": 0,
      "byteOffset": 74424,
      "componentType": 5125,
      "count": 1059,
      "max": [
        1025
      ],
      "min": [
        0
      ],
      "type": "SCALAR"
    },
    {
      "bufferView": 1,
      "byteOffset": 303072,
      "componentType": 5126,
      "count": 495,
      "max": [
        4.2160811424255371,
        0.11125997453927994,
        4.5661602020263672
      ],
      "min": [
        0.61851018667221069,
        -0.3058096170425415,
        0.74683952331542969
      ],
      "type": "VEC3"
    },
    {
      "bufferView": 1,
      "byteOffset": 309012,
      "componentType": 5126,
      "count": 495,
      "max": [
        1,
        1,
        0.057762280106544495
      ],
      "min": [
        -0.99168205261230469,
        -0.99334913492202759,
        -0.057936437427997589
      ],
      "type": "VEC3"
    },
    {
      "bufferView": 2,
      "byteOffset": 202048,
      "componentType": 5126,
      "count": 495,
      "max": [
        1,
        1,
        1,
        1
      ],
      "min": [
        1,
        1,
        1,
        1
      ],
      "type": "VEC4"
    },
    {
      "bufferView": 0,
      "byteOffset": 78660,
      "componentType": 5125,
      "count": 696,
      "max": [
        494
      ],
      "min": [
        0
      ],
      "type": "SCALAR"
    }
  ],
  "asset": {
    "extras": {
      "author": "James (https://sketchfab.com/james)",
      "license": "CC-BY-4.0 (http://creativecommons.org/licenses/by/4.0/)",
      "source": "https://sketchfab.com/models/d2c5b630485f42d98c45a74168757209",
      "title": "Traffic Light"
    },
    "generator": "Sketchfab-3.21.4",
    "version": "2.0"
  },
  "bufferViews": [
    {
      "buffer": 0,
      "byteLength": 81444,
      "byteOffset": 0,
      "name": "floatBufferViews",
      "target": 34963
    },
    {
      "buffer": 0,
      "byteLength": 314952,
      "byteOffset": 81444,
      "byteStride": 12,
      "name": "floatBufferViews",
      "target": 34962
    },
    {
      "buffer": 0,
      "byteLength": 209968,
      "byteOffset": 396396,
      "byteStride": 16,
      "name": "floatBufferViews",
      "target": 34962
    }
  ],
  "buffers": [
    {
      "byteLength": 606364,
      "uri": "scene.bin"
    }
  ],
  "materials": [
    {
      "doubleSided": true,
      "emissiveFactor": [
        0,
        0,
        0
      ],
      "name": "15_-_Default",
      "pbrMetallicRoughness": {
        "baseColorFactor": [
          0.58823499999999995,
          0.58823499999999995,
          0.58823499999999995,
          1
        ],
        "metallicFactor": 0,
        "roughnessFactor": 0.59999999999999998
      }
    },
    {
      "doubleSided": true,
      "emissiveFactor": [
        0,
        0,
        0
      ],
      "name": "22_-_Default",
      "pbrMetallicRoughness": {
        "baseColorFactor": [
          0.25097999999999998,
          0.25097999999999998,
          0.25097999999999998,
          1
        ],
        "metallicFactor": 0,
        "roughnessFactor": 0.59999999999999998
      }
    },
    {
      "doubleSided": true,
      "emissiveFactor": [
        0,
        0,
        0
      ],
      "name": "21_-_Default",
      "pbrMetallicRoughness": {
        "baseColorFactor": [
          0.90588199999999997,
          0.82745100000000005,
          0.58823499999999995,
          1
        ],
        "metallicFactor": 0,
        "roughnessFactor": 0.59999999999999998
      }
    },
    {
      "doubleSided": true,
      "emissiveFactor": [
        0,
        0,
        0
      ],
      "name": "20_-_Default",
      "pbrMetallicRoughness": {
        "baseColorFactor": [
          0.42352899999999999,
          0.47450999999999999,
          0.38039200000000001,
          1
        ],
        "metallicFactor": 0,
        "roughnessFactor": 0.59999999999999998
      }
    },
    {
      "doubleSided": true,
      "emissiveFactor": [
        0,
        0,
        0
      ],
      "name": "19_-_Default",
      "pbrMetallicRoughness": {
        "baseColorFactor": [
          0.86274499999999998,
          0.30196099999999998,
          0.30196099999999998,
          1
        ],
        "metallicFactor": 0,
        "roughnessFactor": 0.59999999999999998
      }
    },
    {
      "doubleSided": true,
      "emissiveFactor": [
        0,
        0,
        0
      ],
      "name": "23_-_Default",
      "pbrMetallicRoughness": {
        "baseColorFactor": [
          0.270588,
          0.16470599999999999,
          0.16470599999999999,
          1
        ],
        "metallicFactor": 0,
        "roughnessFactor": 0.59999999999999998
      }
    }
  ],
  "meshes": [
    {
      "primitives": [
        {
          "attributes": {
            "COLOR_0": 2,
            "NORMAL": 1,
            "POSITION": 0
          },
          "indices": 3,
          "material": 0,
          "mode": 4
        }
      ]
    },
    {
      "primitives": [
        {
          "attributes": {
            "COLOR_0": 6,
            "NORMAL": 5,
            "POSITION": 4
          },
          "indices": 7,
          "material": 1,
          "mode": 4
        }
      ]
    },
    {
      "primitives": [
        {
          "attributes": {
            "COLOR_0": 10,
            "NORMAL": 9,
            "POSITION": 8
          },
          "indices": 11,
          "material": 2,
          "mode": 4
        }
      ]
    },
    {
      "primitives": [
        {
          "attributes": {
            "COLOR_0": 14,
            "NORMAL": 13,
            "POSITION": 12
          },
          "indices": 15,
          "material": 3,
          "mode": 4
        }
      ]
    },
    {
      "primitives": [
        {
          "attributes": {
            "COLOR_0": 18,
            "NORMAL": 17,
            "POSITION": 16
          },
          "indices": 19,
          "material": 4,
          "mode": 4
        }
      ]
    },
    {
      "primitives": [
        {
          "attributes": {
            "COLOR_0": 22,
            "NORMAL": 21,
            "POSITION": 20
          },
          "indices": 23,
          "material": 5,
          "mode": 4
        }
      ]
    },
    {
      "primitives": [
        {
          "attributes": {
            "COLOR_0": 26,
            "NORMAL": 25,
            "POSITION": 24
          },
          "indices": 27,
          "material": 5,
          "mode": 4
        }
      ]
    }
  ],
  "nodes": [
    {
      "children": [
        1
      ],
      "name": "RootNode (gltf orientation matrix)",
      "rotation": [
        -0.70710678118654746,
        -0,
        -0,
        0.70710678118654757
      ]
    },
    {
      "children": [
        2
      ],
      "name": "RootNode (model correction matrix)"
    },
    {
      "children": [
        3
      ],
      "matrix": [
        0.70140981674194336,
        0,
        0,
        0,
        0,
        0.70140981674194336,
        0,
        0,
        0,
        0,
        0.70140981674194336,
        0,
        1.9415092468261719,
        0.0033598486334085464,
        2.2908551692962646,
        1
      ],
      "name": "SLight"
    },
    {
      "children": [
        4,
        7,
        10,
        13,
        16,
        19,
        22
      ],
      "matrix": [
        -0.99334704543894026,
        0.11515965646314692,
        0,
        0,
        -0.11515965646314692,
        -0.99334704543894026,
        0,
        0,
        0,
        0,
        0.99999999999999989,
        0,
        2.9921561589244594,
        -0.30903582859069195,
        -3.2453032469205545,
        1
      ],
      "name": "pow1"
    },
    {
      "children": [
        5
      ],
      "matrix": [
        1,
        -1.3877787807814457e-17,
        0,
        0,
        -1.3877787807814457e-17,
        1,
        0,
        0,
        0,
        0,
        0.99999999999999989,
        0,
        0,
        0,
        0,
        1
      ],
      "name": "covers09"
    },
    {
      "children": [
        6
      ],
      "matrix": [
        -1.4162150332940704,
        -0.16418307690574388,
        0,
        0,
        0.16418307690574388,
        -1.4162150332940702,
        0,
        0,
        0,
        0,
        1.4257000346031816,
        0,
        5.7568811254305361,
        0.36111694954912582,
        -0.020769140161071353,
        1
      ],
      "name": "3DSMeshMatrix"
    },
    {
      "mesh": 0,
      "name": ""
    },
    {
      "children": [
        8
      ],
      "matrix": [
        1,
        -1.3877787807814457e-17,
        0,
        0,
        -1.3877787807814457e-17,
        1,
        0,
        0,
        0,
        0,
        0.99999999999999989,
        0,
        0,
        0,
        0,
        1
      ],
      "name": "fr2sw"
    },
    {
      "children": [
        9
      ],
      "matrix": [
        -1.4162150332940704,
        -0.16418307690574388,
        0,
        0,
        0.16418307690574388,
        -1.4162150332940702,
        0,
        0,
        0,
        0,
        1.4257000346031816,
        0,
        5.7568811254305361,
        0.36111694954912582,
        -0.020769140161071353,
        1
      ],
      "name": "3DSMeshMatrix"
    },
    {
      "mesh": 1,
      "name": ""
    },
    {
      "children": [
        11
      ],
      "matrix": [
        1,
        -1.3877787807814457e-17,
        0,
        0,
        -1.3877787807814457e-17,
        1,
        0,
        0,
        0,
        0,
        0.99999999999999989,
        0,
        0,
        0,
        0,
        1
      ],
      "name": "fra0"
    },
    {
      "children": [
        12
      ],
      "matrix": [
        -1.4162150332940704,
        -0.16418307690574388,
        0,
        0,
        0.16418307690574388,
        -1.4162150332940702,
        0,
        0,
        0,
        0,
        1.4257000346031816,
        0,
        5.7568811254305361,
        0.36111694954912582,
        -0.020769140161071353,
        1
      ],
      "name": "3DSMeshMatrix"
    },
    {
      "mesh": 2,
      "name": ""
    },
    {
      "children": [
        14
      ],
      "matrix": [
        1,
        -1.3877787807814457e-17,
        0,
        0,
        -1.3877787807814457e-17,
        1,
        0,
        0,
        0,
        0,
        0.99999999999999989,
        0,
        0,
        0,
        0,
        1
      ],
      "name": "lightsw"
    },
    {
      "children": [
        15
      ],
      "matrix": [
        -1.4162150332940704,
        -0.16418307690574388,
        0,
        0,
        0.16418307690574388,
        -1.4162150332940702,
        0,
        0,
        0,
        0,
        1.4257000346031816,
        0,
        5.7568811254305361,
        0.36111694954912582,
        -0.020769140161071353,
        1
      ],
      "name": "3DSMeshMatrix"
    },
    {
      "mesh": 3,
      "name": ""
    },
    {
      "children": [
        17
      ],
      "matrix": [
        1,
        -1.3877787807814457e-17,
        0,
        0,
        -1.3877787807814457e-17,
        1,
        0,
        0,
        0,
        0,
        0.99999999999999989,
        0,
        0,
        0,
        0,
        1
      ],
      "name": "ds2"
    },
    {
      "children": [
        18
      ],
      "matrix": [
        -1.4162150332940704,
        -0.16418307690574388,
        0,
        0,
        0.16418307690574388,
        -1.4162150332940702,
        0,
        0,
        0,
        0,
        1.4257000346031816,
        0,
        5.7568811254305361,
        0.36111694954912582,
        -0.020769140161071353,
        1
      ],
      "name": "3DSMeshMatrix"
    },
    {
      "mesh": 4,
      "name": ""
    },
    {
      "children": [
        20
      ],
      "matrix": [
        1,
        -1.3877787807814457e-17,
        0,
        0,
        -1.3877787807814457e-17,
        1,
        0,
        0,
        0,
        0,
        0.99999999999999989,
        0,
        0,
        0,
        0,
        1
      ],
      "name": "sds1"
    },
    {
      "children": [
        21
      ],
      "matrix": [
        -1.4162150332940704,
        -0.16418307690574388,
        0,
        0,
        0.16418307690574388,
        -1.4162150332940702,
        0,
        0,
        0,
        0,
        1.4257000346031816,
        0,
        5.7568811254305361,
        0.36111694954912582,
        -0.020769140161071353,
        1
      ],
      "name": "3DSMeshMatrix"
    },
    {
      "mesh": 5,
      "name": ""
    },
    {
      "children": [
        23
      ],
      "matrix": [
        1,
        -1.3877787807814457e-17,
        0,
        0,
        -1.3877787807814457e-17,
        1,
        0,
        0,
        0,
        0,
        0.99999999999999989,
        0,
        0,
        0,
        0,
        1
      ],
      "name": "tf3"
    },
    {
      "children": [
        24
      ],
      "matrix": [
        -1.4162150332940704,
        -0.16418307690574388,
        0,
        0,
        0.16418307690574388,
        -1.4162150332940702,
        0,
        0,
        0,
        0,
        1.4257000346031816,
        0,
        5.7568811254305361,
        0.36111694954912582,
        -0.020769140161071353,
        1
      ],
      "name": "3DSMeshMatrix"
    },
    {
      "mesh": 6,
      "name": ""
    }
  ],
  "scene": 0,
  "scenes": [
    {
      "name": "OSG_Scene",
      "nodes": [
        0
      ]
    }
  ]
}

