{
	"accessors" : 
	[
		{
			"bufferView" : 2,
			"byteOffset" : 0,
			"componentType" : 5126,
			"count" : 2914,
			"max" : 
			[
				1,
				1,
				1,
				1
			],
			"min" : 
			[
				0,
				0.08919350802898407,
				0,
				1
			],
			"name" : "accessor_color_m0-PolyPaper12_-856150",
			"type" : "VEC4"
		},
		{
			"bufferView" : 2,
			"byteOffset" : 46624,
			"componentType" : 5126,
			"count" : 9630,
			"max" : 
			[
				1,
				1,
				1,
				1
			],
			"min" : 
			[
				0,
				0.006584956776350737,
				0,
				1
			],
			"name" : "accessor_color_m1-PolyPaper12_-856036",
			"type" : "VEC4"
		},
		{
			"bufferView" : 2,
			"byteOffset" : 200704,
			"componentType" : 5126,
			"count" : 9864,
			"max" : 
			[
				1,
				1,
				1,
				1
			],
			"min" : 
			[
				0.006584956776350737,
				0.006584956776350737,
				0,
				1
			],
			"name" : "accessor_color_m2-PolyPaper21_-852860",
			"type" : "VEC4"
		},
		{
			"bufferView" : 0,
			"byteOffset" : 0,
			"componentType" : 5123,
			"count" : 4422,
			"max" : 
			[
				2913
			],
			"min" : 
			[
				0
			],
			"name" : "accessor_indices_0_m0-PolyPaper12_-856150",
			"type" : "SCALAR"
		},
		{
			"bufferView" : 0,
			"byteOffset" : 8844,
			"componentType" : 5123,
			"count" : 14418,
			"max" : 
			[
				9629
			],
			"min" : 
			[
				0
			],
			"name" : "accessor_indices_0_m1-PolyPaper12_-856036",
			"type" : "SCALAR"
		},
		{
			"bufferView" : 0,
			"byteOffset" : 37680,
			"componentType" : 5123,
			"count" : 14586,
			"max" : 
			[
				9863
			],
			"min" : 
			[
				0
			],
			"name" : "accessor_indices_0_m2-PolyPaper21_-852860",
			"type" : "SCALAR"
		},
		{
			"bufferView" : 1,
			"byteOffset" : 34968,
			"componentType" : 5126,
			"count" : 2914,
			"max" : 
			[
				0.9977328,
				0.9984525,
				0.9773168
			],
			"min" : 
			[
				-0.9977328,
				-0.9976069,
				-0.9880472
			],
			"name" : "accessor_normal_m0-PolyPaper12_-856150",
			"type" : "VEC3"
		},
		{
			"bufferView" : 1,
			"byteOffset" : 185496,
			"componentType" : 5126,
			"count" : 9630,
			"max" : 
			[
				0.9989561,
				0.9997467,
				0.9999395
			],
			"min" : 
			[
				-0.9989387,
				-0.9995189,
				-0.999561
			],
			"name" : "accessor_normal_m1-PolyPaper12_-856036",
			"type" : "VEC3"
		},
		{
			"bufferView" : 1,
			"byteOffset" : 419424,
			"componentType" : 5126,
			"count" : 9864,
			"max" : 
			[
				0.999989,
				0.9990865,
				0.9998517
			],
			"min" : 
			[
				-0.9999459000000001,
				-0.9998682,
				-0.9989274
			],
			"name" : "accessor_normal_m2-PolyPaper21_-852860",
			"type" : "VEC3"
		},
		{
			"bufferView" : 1,
			"byteOffset" : 0,
			"componentType" : 5126,
			"count" : 2914,
			"max" : 
			[
				0.08891138,
				2.039968,
				-0.241893
			],
			"min" : 
			[
				-0.2679661,
				1.55795,
				-0.3889032
			],
			"name" : "accessor_position_m0-PolyPaper12_-856150",
			"type" : "VEC3"
		},
		{
			"bufferView" : 1,
			"byteOffset" : 69936,
			"componentType" : 5126,
			"count" : 9630,
			"max" : 
			[
				0.2189642,
				2.018391,
				-0.1384427
			],
			"min" : 
			[
				-0.4612325,
				1.421136,
				-0.4769584
			],
			"name" : "accessor_position_m1-PolyPaper12_-856036",
			"type" : "VEC3"
		},
		{
			"bufferView" : 1,
			"byteOffset" : 301056,
			"componentType" : 5126,
			"count" : 9864,
			"max" : 
			[
				-0.0122304,
				2.033072,
				-0.1677693
			],
			"min" : 
			[
				-0.2548779,
				1.531473,
				-0.4401422
			],
			"name" : "accessor_position_m2-PolyPaper21_-852860",
			"type" : "VEC3"
		}
	],
	"asset" : 
	{
		"copyright" : "Unknown",
		"generator" : "glTF 1-to-2 Upgrader for Google Blocks",
		"version" : "2.0"
	},
	"bufferViews" : 
	[
		{
			"buffer" : 0,
			"byteLength" : 66852,
			"byteOffset" : 0,
			"name" : "ushortBufferView",
			"target" : 34963
		},
		{
			"buffer" : 0,
			"byteLength" : 537792,
			"byteOffset" : 66852,
			"byteStride" : 12,
			"name" : "vec3BufferView",
			"target" : 34962
		},
		{
			"buffer" : 0,
			"byteLength" : 358528,
			"byteOffset" : 604644,
			"byteStride" : 16,
			"name" : "vec4BufferView",
			"target" : 34962
		}
	],
	"buffers" : 
	[
		{
			"byteLength" : 963172,
			"name" : "model",
			"uri" : "model.bin"
		}
	],
	"materials" : 
	[
		{
			"alphaMode" : "OPAQUE",
			"doubleSided" : false,
			"name" : "BlocksPaper",
			"pbrMetallicRoughness" : 
			{
				"baseColorFactor" : 
				[
					1,
					1,
					1,
					1
				],
				"metallicFactor" : 0,
				"roughnessFactor" : 0.6
			}
		},
		{
			"alphaMode" : "BLEND",
			"doubleSided" : false,
			"name" : "BlocksGlass",
			"pbrMetallicRoughness" : 
			{
				"baseColorFactor" : 
				[
					0.2,
					0.2,
					1,
					0.3
				],
				"metallicFactor" : 1,
				"roughnessFactor" : 0.4
			}
		},
		{
			"alphaMode" : "OPAQUE",
			"doubleSided" : true,
			"name" : "BlocksGem",
			"pbrMetallicRoughness" : 
			{
				"baseColorFactor" : 
				[
					1,
					0.4,
					1,
					1
				],
				"metallicFactor" : 0,
				"roughnessFactor" : 0.1
			}
		}
	],
	"meshes" : 
	[
		{
			"name" : "mesh_m0-PolyPaper12_-856150",
			"primitives" : 
			[
				{
					"attributes" : 
					{
						"COLOR_0" : 0,
						"NORMAL" : 6,
						"POSITION" : 9
					},
					"indices" : 3,
					"material" : 0,
					"mode" : 4
				}
			]
		},
		{
			"name" : "mesh_m1-PolyPaper12_-856036",
			"primitives" : 
			[
				{
					"attributes" : 
					{
						"COLOR_0" : 1,
						"NORMAL" : 7,
						"POSITION" : 10
					},
					"indices" : 4,
					"material" : 0,
					"mode" : 4
				}
			]
		},
		{
			"name" : "mesh_m2-PolyPaper21_-852860",
			"primitives" : 
			[
				{
					"attributes" : 
					{
						"COLOR_0" : 2,
						"NORMAL" : 8,
						"POSITION" : 11
					},
					"indices" : 5,
					"material" : 0,
					"mode" : 4
				}
			]
		}
	],
	"nodes" : 
	[
		{
			"matrix" : 
			[
				1,
				0,
				0,
				0,
				0,
				1,
				0,
				0,
				0,
				0,
				1,
				0,
				0,
				0,
				0,
				1
			],
			"mesh" : 2,
			"name" : "node_MeshObject-717153984-PolyPaper21"
		},
		{
			"matrix" : 
			[
				1,
				0,
				0,
				0,
				0,
				1,
				0,
				0,
				0,
				0,
				1,
				0,
				0,
				0,
				0,
				1
			],
			"mesh" : 0,
			"name" : "node_MeshObject1448137024-PolyPaper12"
		},
		{
			"matrix" : 
			[
				1,
				0,
				0,
				0,
				0,
				1,
				0,
				0,
				0,
				0,
				1,
				0,
				0,
				0,
				0,
				1
			],
			"mesh" : 1,
			"name" : "node_MeshObject929416960-PolyPaper12"
		}
	],
	"scene" : 0,
	"scenes" : 
	[
		{
			"extras" : {},
			"name" : "defaultScene",
			"nodes" : 
			[
				1,
				2,
				0
			]
		}
	]
}