{"accessors":[{"name":"mesh399081721_positions","componentType":5126,"count":2694,"min":[-0.08136212825775146,-0.01126157958060503,-0.9086489081382751],"max":[0.16184429824352264,0.578515887260437,-0.4203602969646454],"type":"VEC3","bufferView":0,"byteOffset":0},{"name":"mesh399081721_normals","componentType":5126,"count":2694,"min":[-0.9942858815193176,-0.9991434216499329,-0.992292582988739],"max":[0.9974365830421448,0.9996631741523743,0.992292582988739],"type":"VEC3","bufferView":0,"byteOffset":112728},{"name":"mesh399081721_texcoords","componentType":5126,"count":2694,"min":[-0.2804484963417053,0.7277687788009644],"max":[0.28066161274909973,1.271335244178772],"type":"VEC2","bufferView":1,"byteOffset":0},{"name":"mesh399081721_0_indices","componentType":5123,"count":2304,"min":[0],"max":[1877],"type":"SCALAR","bufferView":2,"byteOffset":0},{"name":"mesh399081721_1_indices","componentType":5123,"count":1152,"min":[1878],"max":[2693],"type":"SCALAR","bufferView":2,"byteOffset":4608},{"name":"mesh861611824_positions","componentType":5126,"count":6700,"min":[-0.5660759806632996,-1.0881969928741455,-1.0143799781799316],"max":[0.5366293787956238,1.173125982284546,0.9730318784713745],"type":"VEC3","bufferView":0,"byteOffset":32328},{"name":"mesh861611824_normals","componentType":5126,"count":6700,"min":[-0.9996346235275269,-0.9998289942741394,-0.9999611973762512],"max":[0.9999526143074036,0.9998214244842529,0.9996693134307861],"type":"VEC3","bufferView":0,"byteOffset":145056},{"name":"mesh861611824_texcoords","componentType":5126,"count":6700,"min":[-0.29513049125671387,0.7220343947410583],"max":[0.2985802888870239,1.2866487503051758],"type":"VEC2","bufferView":1,"byteOffset":21552},{"name":"mesh861611824_0_indices","componentType":5123,"count":1326,"min":[0],"max":[1019],"type":"SCALAR","bufferView":2,"byteOffset":6912},{"name":"mesh861611824_1_indices","componentType":5123,"count":450,"min":[1020],"max":[1465],"type":"SCALAR","bufferView":2,"byteOffset":9564},{"name":"mesh861611824_2_indices","componentType":5123,"count":342,"min":[1466],"max":[1701],"type":"SCALAR","bufferView":2,"byteOffset":10464},{"name":"mesh861611824_3_indices","componentType":5123,"count":549,"min":[1702],"max":[2084],"type":"SCALAR","bufferView":2,"byteOffset":11148},{"name":"mesh861611824_4_indices","componentType":5123,"count":288,"min":[2085],"max":[2270],"type":"SCALAR","bufferView":2,"byteOffset":12248},{"name":"mesh861611824_5_indices","componentType":5123,"count":207,"min":[2271],"max":[2405],"type":"SCALAR","bufferView":2,"byteOffset":12824},{"name":"mesh861611824_6_indices","componentType":5123,"count":96,"min":[2406],"max":[2485],"type":"SCALAR","bufferView":2,"byteOffset":13240},{"name":"mesh861611824_7_indices","componentType":5123,"count":240,"min":[2486],"max":[2653],"type":"SCALAR","bufferView":2,"byteOffset":13432},{"name":"mesh861611824_8_indices","componentType":5123,"count":30,"min":[2654],"max":[2673],"type":"SCALAR","bufferView":2,"byteOffset":13912},{"name":"mesh861611824_9_indices","componentType":5123,"count":2253,"min":[2674],"max":[4352],"type":"SCALAR","bufferView":2,"byteOffset":13972},{"name":"mesh861611824_10_indices","componentType":5123,"count":18,"min":[4353],"max":[4364],"type":"SCALAR","bufferView":2,"byteOffset":18480},{"name":"mesh861611824_11_indices","componentType":5123,"count":756,"min":[4365],"max":[5086],"type":"SCALAR","bufferView":2,"byteOffset":18516},{"name":"mesh861611824_12_indices","componentType":5123,"count":450,"min":[5087],"max":[5520],"type":"SCALAR","bufferView":2,"byteOffset":20028},{"name":"mesh861611824_13_indices","componentType":5123,"count":6,"min":[5521],"max":[5526],"type":"SCALAR","bufferView":2,"byteOffset":20928},{"name":"mesh861611824_14_indices","componentType":5123,"count":6,"min":[5527],"max":[5532],"type":"SCALAR","bufferView":2,"byteOffset":20940},{"name":"mesh861611824_15_indices","componentType":5123,"count":549,"min":[5533],"max":[6061],"type":"SCALAR","bufferView":2,"byteOffset":20952},{"name":"mesh861611824_16_indices","componentType":5123,"count":333,"min":[6062],"max":[6378],"type":"SCALAR","bufferView":2,"byteOffset":22052},{"name":"mesh861611824_17_indices","componentType":5123,"count":321,"min":[6379],"max":[6699],"type":"SCALAR","bufferView":2,"byteOffset":22720}],"asset":{"generator":"obj2gltf","version":"2.0"},"buffers":[{"name":"model","byteLength":323972,"uri":"data:application/octet-stream;base64,"}],"bufferViews":[{"name":"bufferView_0","buffer":0,"byteLength":225456,"byteOffset":0,"byteStride":12,"target":34962},{"name":"bufferView_1","buffer":0,"byteLength":75152,"byteOffset":225456,"byteStride":8,"target":34962},{"name":"bufferView_2","buffer":0,"byteLength":23364,"byteOffset":300608,"target":34963}],"materials":[{"name":"mat23","pbrMetallicRoughness":{"baseColorFactor":[0.1,0.1,0.1,1],"metallicFactor":0,"roughnessFactor":1},"emissiveFactor":[0,0,0],"alphaMode":"OPAQUE","doubleSided":false},{"name":"mat21","pbrMetallicRoughness":{"baseColorFactor":[1,1,1,1],"metallicFactor":0,"roughnessFactor":1},"emissiveFactor":[0,0,0],"alphaMode":"OPAQUE","doubleSided":false},{"name":"mat4","pbrMetallicRoughness":{"baseColorFactor":[0,0.74,0.83,1],"metallicFactor":0,"roughnessFactor":1},"emissiveFactor":[0,0,0],"alphaMode":"OPAQUE","doubleSided":false},{"name":"mat9","pbrMetallicRoughness":{"baseColorFactor":[0.55,0.76,0.29,1],"metallicFactor":0,"roughnessFactor":1},"emissiveFactor":[0,0,0],"alphaMode":"OPAQUE","doubleSided":false},{"name":"mat11","pbrMetallicRoughness":{"baseColorFactor":[0,0.59,0.53,1],"metallicFactor":0,"roughnessFactor":1},"emissiveFactor":[0,0,0],"alphaMode":"OPAQUE","doubleSided":false},{"name":"mat15","pbrMetallicRoughness":{"baseColorFactor":[0.81,0.85,0.86,1],"metallicFactor":0,"roughnessFactor":1},"emissiveFactor":[0,0,0],"alphaMode":"OPAQUE","doubleSided":false},{"name":"mat17","pbrMetallicRoughness":{"baseColorFactor":[0.27,0.35,0.39,1],"metallicFactor":0,"roughnessFactor":1},"emissiveFactor":[0,0,0],"alphaMode":"OPAQUE","doubleSided":false},{"name":"mat0","pbrMetallicRoughness":{"baseColorFactor":[0.73,0.41,0.78,1],"metallicFactor":0,"roughnessFactor":1},"emissiveFactor":[0,0,0],"alphaMode":"OPAQUE","doubleSided":false},{"name":"mat2","pbrMetallicRoughness":{"baseColorFactor":[0.4,0.23,0.72,1],"metallicFactor":0,"roughnessFactor":1},"emissiveFactor":[0,0,0],"alphaMode":"OPAQUE","doubleSided":false},{"name":"mat8","pbrMetallicRoughness":{"baseColorFactor":[0.96,0.26,0.21,1],"metallicFactor":0,"roughnessFactor":1},"emissiveFactor":[0,0,0],"alphaMode":"OPAQUE","doubleSided":false},{"name":"mat22","pbrMetallicRoughness":{"baseColorFactor":[0.62,0.62,0.62,1],"metallicFactor":0,"roughnessFactor":1},"emissiveFactor":[0,0,0],"alphaMode":"OPAQUE","doubleSided":false},{"name":"mat18","pbrMetallicRoughness":{"baseColorFactor":[1,0.8,0.53,1],"metallicFactor":0,"roughnessFactor":1},"emissiveFactor":[0,0,0],"alphaMode":"OPAQUE","doubleSided":false},{"name":"mat19","pbrMetallicRoughness":{"baseColorFactor":[0.87,0.6,0.27,1],"metallicFactor":0,"roughnessFactor":1},"emissiveFactor":[0,0,0],"alphaMode":"OPAQUE","doubleSided":false},{"name":"mat6","pbrMetallicRoughness":{"baseColorFactor":[0.97,0.73,0.82,1],"metallicFactor":0,"roughnessFactor":1},"emissiveFactor":[0,0,0],"alphaMode":"OPAQUE","doubleSided":false},{"name":"mat7","pbrMetallicRoughness":{"baseColorFactor":[0.94,0.38,0.57,1],"metallicFactor":0,"roughnessFactor":1},"emissiveFactor":[0,0,0],"alphaMode":"OPAQUE","doubleSided":false},{"name":"mat13","pbrMetallicRoughness":{"baseColorFactor":[1,0.6,0,1],"metallicFactor":0,"roughnessFactor":1},"emissiveFactor":[0,0,0],"alphaMode":"OPAQUE","doubleSided":false},{"name":"mat12","pbrMetallicRoughness":{"baseColorFactor":[1,0.92,0.23,1],"metallicFactor":0,"roughnessFactor":1},"emissiveFactor":[0,0,0],"alphaMode":"OPAQUE","doubleSided":false},{"name":"mat3","pbrMetallicRoughness":{"baseColorFactor":[0.5,0.87,0.92,1],"metallicFactor":0,"roughnessFactor":1},"emissiveFactor":[0,0,0],"alphaMode":"OPAQUE","doubleSided":false}],"meshes":[{"name":"mesh399081721","primitives":[{"attributes":{"POSITION":0,"NORMAL":1,"TEXCOORD_0":2},"indices":3,"material":0,"mode":4},{"attributes":{"POSITION":0,"NORMAL":1,"TEXCOORD_0":2},"indices":4,"material":1,"mode":4}]},{"name":"mesh861611824","primitives":[{"attributes":{"POSITION":5,"NORMAL":6,"TEXCOORD_0":7},"indices":8,"material":1,"mode":4},{"attributes":{"POSITION":5,"NORMAL":6,"TEXCOORD_0":7},"indices":9,"material":2,"mode":4},{"attributes":{"POSITION":5,"NORMAL":6,"TEXCOORD_0":7},"indices":10,"material":3,"mode":4},{"attributes":{"POSITION":5,"NORMAL":6,"TEXCOORD_0":7},"indices":11,"material":4,"mode":4},{"attributes":{"POSITION":5,"NORMAL":6,"TEXCOORD_0":7},"indices":12,"material":5,"mode":4},{"attributes":{"POSITION":5,"NORMAL":6,"TEXCOORD_0":7},"indices":13,"material":6,"mode":4},{"attributes":{"POSITION":5,"NORMAL":6,"TEXCOORD_0":7},"indices":14,"material":7,"mode":4},{"attributes":{"POSITION":5,"NORMAL":6,"TEXCOORD_0":7},"indices":15,"material":8,"mode":4},{"attributes":{"POSITION":5,"NORMAL":6,"TEXCOORD_0":7},"indices":16,"material":9,"mode":4},{"attributes":{"POSITION":5,"NORMAL":6,"TEXCOORD_0":7},"indices":17,"material":0,"mode":4},{"attributes":{"POSITION":5,"NORMAL":6,"TEXCOORD_0":7},"indices":18,"material":10,"mode":4},{"attributes":{"POSITION":5,"NORMAL":6,"TEXCOORD_0":7},"indices":19,"material":11,"mode":4},{"attributes":{"POSITION":5,"NORMAL":6,"TEXCOORD_0":7},"indices":20,"material":12,"mode":4},{"attributes":{"POSITION":5,"NORMAL":6,"TEXCOORD_0":7},"indices":21,"material":13,"mode":4},{"attributes":{"POSITION":5,"NORMAL":6,"TEXCOORD_0":7},"indices":22,"material":14,"mode":4},{"attributes":{"POSITION":5,"NORMAL":6,"TEXCOORD_0":7},"indices":23,"material":15,"mode":4},{"attributes":{"POSITION":5,"NORMAL":6,"TEXCOORD_0":7},"indices":24,"material":16,"mode":4},{"attributes":{"POSITION":5,"NORMAL":6,"TEXCOORD_0":7},"indices":25,"material":17,"mode":4}]}],"nodes":[{"name":"group399081721","mesh":0},{"name":"group861611824","mesh":1}],"scene":0,"scenes":[{"nodes":[0,1]}]}
